<svg width="155" height="57" viewBox="0 0 155 57" fill="none" xmlns="http://www.w3.org/2000/svg">
<path d="M0.48 16.728H9.184L16.384 35.576L23.584 16.728H32.256L21.152 43H11.616L0.48 16.728ZM41.75 10.84L34.806 14.616V6.968L45.782 0.759998H49.75V43H41.75V10.84ZM73.8995 15.96C75.6915 15.96 77.4408 16.3333 79.1475 17.08C80.8542 17.8053 82.2515 18.968 83.3395 20.568C84.4488 22.168 85.0035 24.2587 85.0035 26.84V43H76.8435V28.248C76.8435 26.0933 76.3315 24.4933 75.3075 23.448C74.3048 22.4027 72.9822 21.88 71.3395 21.88C70.2728 21.88 69.2488 22.1787 68.2675 22.776C67.3075 23.352 66.5182 24.1627 65.8995 25.208C65.3022 26.232 65.0035 27.4053 65.0035 28.728V43H56.8755V16.728H65.0035V20.92C65.2382 20.1947 65.7715 19.448 66.6035 18.68C67.4355 17.912 68.4915 17.272 69.7715 16.76C71.0515 16.2267 72.4275 15.96 73.8995 15.96ZM111.991 43V38.424C111.799 38.8933 111.308 39.5547 110.519 40.408C109.73 41.2613 108.663 42.04 107.319 42.744C105.996 43.4267 104.439 43.768 102.647 43.768C100.13 43.768 97.9003 43.1707 95.959 41.976C94.0177 40.76 92.4923 39.1067 91.383 37.016C90.295 34.904 89.751 32.5253 89.751 29.88C89.751 27.2347 90.295 24.8667 91.383 22.776C92.4923 20.664 94.0177 19 95.959 17.784C97.9003 16.568 100.13 15.96 102.647 15.96C104.396 15.96 105.911 16.2587 107.191 16.856C108.492 17.432 109.538 18.1147 110.327 18.904C111.138 19.672 111.66 20.3653 111.895 20.984V16.728H119.959V43H111.991ZM97.719 29.88C97.719 31.352 98.0497 32.6533 98.711 33.784C99.3723 34.8933 100.247 35.7573 101.335 36.376C102.423 36.9947 103.607 37.304 104.887 37.304C106.231 37.304 107.426 36.9947 108.471 36.376C109.516 35.736 110.338 34.8613 110.935 33.752C111.554 32.6213 111.863 31.3307 111.863 29.88C111.863 28.4293 111.554 27.1493 110.935 26.04C110.338 24.9093 109.516 24.024 108.471 23.384C107.426 22.744 106.231 22.424 104.887 22.424C103.607 22.424 102.423 22.744 101.335 23.384C100.247 24.0027 99.3723 24.8773 98.711 26.008C98.0497 27.1173 97.719 28.408 97.719 29.88ZM138.984 35.864L146.76 16.728H154.792L136.84 56.312H128.68L134.728 43L123.816 16.728H131.944L138.984 35.864Z" fill="black"/>
</svg>
